<?xml version="1.0" encoding="UTF-8" standalone="no"?><!DOCTYPE svg PUBLIC "-//W3C//DTD SVG 1.1//EN" "http://www.w3.org/Graphics/SVG/1.1/DTD/svg11.dtd"><svg width="100%" height="100%" viewBox="0 0 480 480" version="1.1" xmlns="http://www.w3.org/2000/svg" xmlns:xlink="http://www.w3.org/1999/xlink" xml:space="preserve" xmlns:serif="http://www.serif.com/" style="fill-rule:evenodd;clip-rule:evenodd;stroke-linecap:round;stroke-linejoin:round;"><path d="M469.635,240c0,126.829 -102.806,229.635 -229.635,229.635c-126.832,0 -229.635,-102.806 -229.635,-229.635c0,-126.829 102.803,-229.635 229.635,-229.635c126.829,0 229.635,102.806 229.635,229.635" style="fill:#f1c02c;fill-rule:nonzero;"/><path d="M469.635,240c0,-126.739 -102.896,-229.635 -229.635,-229.635c-126.739,0 -229.635,102.896 -229.635,229.635c0,126.739 102.896,229.635 229.635,229.635c126.739,0 229.635,-102.896 229.635,-229.635Z" style="fill:none;stroke:#2a2f71;stroke-width:5.2px;"/><path d="M266.355,397.466c-25.679,25.669 -52.926,30.242 -73.714,28.356c-20.798,-1.902 -86.947,-54.827 -88.836,-75.615c-1.899,-20.798 -8.985,-66.523 -11.342,-107.736c-2.317,-40.628 -10.615,-60.738 -12.517,-70.179c-1.885,-9.459 23.45,-18.863 37.214,-7.649c9.381,7.649 30.114,23.017 30.114,74.044c15.129,-20.785 20.798,-24.572 30.241,-49.141c9.46,-24.573 29.977,-88.725 35.963,-109.003c6.629,-22.415 20.697,-28.238 30.078,-25.983c12.743,3.057 20.376,12.746 11.457,46.146c-9.941,37.25 -28.353,102.08 -28.353,102.08c0,0 64.008,-97.428 73.468,-112.554c9.456,-15.129 20.389,-25.986 35.171,-17.842c9.65,5.325 15.777,18.467 2.537,39.252c-13.231,20.786 -63.927,117.602 -63.927,117.602c0,0 77.193,-77.868 90.437,-91.111c13.227,-13.227 22.975,-16.628 30.536,-10.956c7.551,5.669 11.339,15.126 -3.787,37.796c-15.116,22.687 -77.498,102.067 -77.498,102.067c0,0 53.895,-40.182 67.619,-50.925c8.324,-6.511 17.447,-9.555 25.005,-3.886c7.558,5.673 7.829,18.746 -5.326,33.937c-18.432,21.257 -58.928,60.575 -79.727,83.243c-20.785,22.686 -39.698,52.931 -54.813,68.057" style="fill:#fff;fill-rule:nonzero;"/><path d="M266.355,397.466c-25.679,25.669 -52.926,30.242 -73.714,28.356c-20.798,-1.902 -86.947,-54.827 -88.836,-75.615c-1.899,-20.798 -8.985,-66.523 -11.342,-107.736c-2.317,-40.628 -10.615,-60.738 -12.517,-70.179c-1.885,-9.459 23.45,-18.863 37.214,-7.649c9.381,7.649 30.114,23.017 30.114,74.044c15.129,-20.785 20.798,-24.572 30.241,-49.141c9.46,-24.573 29.977,-88.725 35.963,-109.003c6.629,-22.415 20.697,-28.238 30.078,-25.983c12.743,3.057 20.376,12.746 11.457,46.146c-9.941,37.25 -28.353,102.08 -28.353,102.08c0,0 64.008,-97.428 73.468,-112.554c9.456,-15.129 20.389,-25.986 35.171,-17.842c9.65,5.325 15.777,18.467 2.537,39.252c-13.231,20.786 -63.927,117.602 -63.927,117.602c0,0 77.193,-77.868 90.437,-91.111c13.227,-13.227 22.975,-16.628 30.536,-10.956c7.551,5.669 11.339,15.126 -3.787,37.796c-15.116,22.687 -77.498,102.067 -77.498,102.067c0,0 53.895,-40.182 67.619,-50.925c8.324,-6.511 17.447,-9.555 25.005,-3.886c7.558,5.673 7.829,18.746 -5.326,33.937c-18.432,21.257 -58.928,60.575 -79.727,83.243c-20.785,22.686 -39.698,52.931 -54.813,68.057Z" style="fill:none;stroke:#2a2f71;stroke-width:3.46px;"/><path d="M148.46,239.631c0,0 29.057,15.597 37.558,34.029c8.513,18.421 14.186,63.795 8.513,87.89" style="fill:#fff;fill-rule:nonzero;stroke:#2a2f71;stroke-width:3.46px;"/><path d="M192.643,235.856c14.173,5.672 74.656,46.313 88.826,65.216" style="fill:#fff;fill-rule:nonzero;stroke:#2a2f71;stroke-width:3.46px;"/></svg>