<?xml version="1.0" encoding="UTF-8" standalone="no"?><!DOCTYPE svg PUBLIC "-//W3C//DTD SVG 1.1//EN" "http://www.w3.org/Graphics/SVG/1.1/DTD/svg11.dtd"><svg width="100%" height="100%" viewBox="0 0 480 480" version="1.1" xmlns="http://www.w3.org/2000/svg" xmlns:xlink="http://www.w3.org/1999/xlink" xml:space="preserve" xmlns:serif="http://www.serif.com/" style="fill-rule:evenodd;clip-rule:evenodd;stroke-linecap:round;stroke-linejoin:round;"><path d="M469.635,239.998c0,126.83 -102.806,229.637 -229.648,229.637c-126.816,0 -229.622,-102.807 -229.622,-229.637c0,-126.826 102.806,-229.633 229.622,-229.633c126.842,0 229.648,102.807 229.648,229.633" style="fill:#2894d2;fill-rule:nonzero;"/><path d="M469.635,240c0,-126.739 -102.896,-229.635 -229.635,-229.635c-126.739,0 -229.635,102.896 -229.635,229.635c0,126.739 102.896,229.635 229.635,229.635c126.739,0 229.635,-102.896 229.635,-229.635Z" style="fill:none;stroke:#2a2f71;stroke-width:5.2px;"/><path d="M309.888,358.484c-20.595,15.433 -60.012,38.179 -75.036,39.541c-15.001,1.368 -90.001,-36.811 -102.273,-68.189c-12.281,-31.364 -24.559,-75.017 -25.911,-91.377c-1.371,-16.363 6.364,-59.999 32.716,-70.922c14.999,-12.271 50.464,-54.546 53.191,-59.999c2.743,-5.466 17.26,-41.266 45.014,-39.557c22.277,1.361 32.726,16.366 34.1,30.012c15.005,-3.646 26.808,-4.104 35.921,0.445c8.789,4.396 22.733,15.905 21.371,34.995c12.258,-0.907 25.905,1.378 32.265,8.196c9.305,9.964 12.736,19.548 8.641,36.831c14.998,0 23.184,11.813 24.104,20.9c0.796,8.144 1.509,25.613 -15.924,43.649c-8.642,8.92 -11.047,10.743 -11.047,10.743c0,0 -23.041,60.179 -33.951,81.537c-5.551,10.868 -17.754,19.103 -23.181,23.195" style="fill:#fff;fill-rule:nonzero;"/><path d="M309.888,358.484c-20.595,15.433 -60.012,38.179 -75.036,39.541c-15.001,1.368 -90.001,-36.811 -102.273,-68.189c-12.281,-31.364 -24.559,-75.017 -25.911,-91.377c-1.371,-16.363 6.364,-59.999 32.716,-70.922c14.999,-12.271 50.464,-54.546 53.191,-59.999c2.743,-5.466 17.26,-41.266 45.014,-39.557c22.277,1.361 32.726,16.366 34.1,30.012c15.005,-3.646 26.808,-4.104 35.921,0.445c8.789,4.396 22.733,15.905 21.371,34.995c12.258,-0.907 25.905,1.378 32.265,8.196c9.305,9.964 12.736,19.548 8.641,36.831c14.998,0 23.184,11.813 24.104,20.9c0.796,8.144 1.509,25.613 -15.924,43.649c-8.642,8.92 -11.047,10.743 -11.047,10.743c0,0 -23.041,60.179 -33.951,81.537c-5.551,10.868 -17.754,19.103 -23.181,23.195Z" style="fill:none;stroke:#2a2f71;stroke-width:3.46px;"/><path d="M139.385,167.537c6.229,-1.325 37.76,1.683 45.763,1.683c8.007,0 37.508,2 45.541,7.011c7.987,4.995 41.515,27.001 50.513,34.013c8.995,6.995 12.504,19.011 4.013,28.507c-9.637,10.756 -27.028,15.505 -49.04,12.513c-10.461,-1.424 -38.526,-16.504 -40.025,-21.011" style="fill:#fff;fill-rule:nonzero;stroke:#2a2f71;stroke-width:3.46px;"/><path d="M207.657,241.261c0,0 -16.507,12.504 -36.029,14.504" style="fill:#fff;fill-rule:nonzero;stroke:#2a2f71;stroke-width:3.47px;"/><path d="M203.156,245.76c0,0 37.024,41.024 10.501,91.056" style="fill:#fff;fill-rule:nonzero;stroke:#2a2f71;stroke-width:3.47px;"/><path d="M203.143,88.18c-4.51,7.721 -20.494,59.03 -17.993,81.039" style="fill:#fff;fill-rule:nonzero;stroke:#2a2f71;stroke-width:3.47px;"/><path d="M271.69,97.993c0,0 -4.9,22.477 -10.003,32.7c-8.995,18.009 -22.006,45.04 -27.512,46.533" style="fill:#fff;fill-rule:nonzero;stroke:#2a2f71;stroke-width:3.46px;"/><path d="M328.981,133.433c0,0 -28.762,54.801 -50.778,71.803" style="fill:#fff;fill-rule:nonzero;stroke:#2a2f71;stroke-width:3.46px;"/><path d="M369.887,178.46c0,0 -63.488,62.1 -71.19,71.812c-9.502,11.997 -0.978,22 1.522,25.499c2.481,3.509 21.015,6.514 39.515,-4.497c18.517,-11.008 27.898,-18.138 27.898,-18.138" style="fill:#fff;fill-rule:nonzero;stroke:#2a2f71;stroke-width:3.46px;"/><path d="M298.697,250.274c0,0 -10.501,6.501 -17.496,6.995c-7.004,0.497 -11.505,-5.506 -12.5,-7.506" style="fill:#fff;fill-rule:nonzero;stroke:#2a2f71;stroke-width:3.46px;"/></svg>