<?xml version="1.0" encoding="UTF-8" standalone="no"?><!DOCTYPE svg PUBLIC "-//W3C//DTD SVG 1.1//EN" "http://www.w3.org/Graphics/SVG/1.1/DTD/svg11.dtd"><svg width="100%" height="100%" viewBox="0 0 480 480" version="1.1" xmlns="http://www.w3.org/2000/svg" xmlns:xlink="http://www.w3.org/1999/xlink" xml:space="preserve" xmlns:serif="http://www.serif.com/" style="fill-rule:evenodd;clip-rule:evenodd;stroke-linecap:round;stroke-linejoin:round;"><path d="M469.635,239.998c0,126.83 -102.811,229.637 -229.643,229.637c-126.81,0 -229.627,-102.807 -229.627,-229.637c0,-126.826 102.817,-229.633 229.627,-229.633c126.832,0 229.643,102.807 229.643,229.633" style="fill:#d82427;fill-rule:nonzero;"/><path d="M469.635,240c0,-126.739 -102.896,-229.635 -229.635,-229.635c-126.739,0 -229.635,102.896 -229.635,229.635c0,126.739 102.896,229.635 229.635,229.635c126.739,0 229.635,-102.896 229.635,-229.635Z" style="fill:none;stroke:#2a2f71;stroke-width:5.2px;"/><path d="M337.113,324.581c0,0 -3.781,47.26 -24.582,66.156c-20.781,18.917 -60.465,39.702 -71.81,39.702c-27.41,0 -69.735,-34.857 -96.395,-71.829c-17.829,-24.72 -27.194,-78.559 -5.673,-109.628c18.877,-27.244 37.802,-28.354 37.802,-28.354c0,0 25.983,-127.111 31.18,-151.209c5.202,-24.097 24.101,-24.097 28.353,-24.097c4.258,0 26.941,6.144 23.157,35.924c-3.783,29.76 -15.596,123.795 -15.596,123.795c0,0 78.435,-100.65 85.993,-111.039c7.571,-10.409 20.559,-10.167 28.355,-2.37c10.733,10.73 10.403,25.515 2.373,42.53c-8.042,17.011 -55.755,83.635 -55.755,83.635c0,0 22.912,-5.666 33.544,4.262c10.791,10.062 10.628,24.085 6.14,34.006c9.46,0.475 20.801,10.884 21.266,24.576c0.478,13.715 -2.367,24.569 -28.352,43.94Z" style="fill:#fff;fill-rule:nonzero;stroke:#2a2f71;stroke-width:3.46px;"/><path d="M176.593,220.656c18.66,-4.347 66.674,9.85 89.338,22.874c25.596,14.71 33.272,20.343 21.086,38.058c-11.273,16.409 -32.955,15.859 -42.869,15.859c-9.928,0 -40.755,-5.937 -40.755,-5.937c0,0 21.767,31.148 24.101,60.958c1.401,17.99 -2.845,29.773 -2.845,29.773" style="fill:#fff;fill-rule:nonzero;stroke:#2a2f71;stroke-width:3.46px;"/><path d="M304.515,217.798l-33.134,27.912" style="fill:#fff;fill-rule:nonzero;stroke:#2a2f71;stroke-width:3.46px;"/><path d="M344.199,256.066c0,0 -67.372,41.934 -73.368,51.197c-5.692,8.795 -1.097,18.514 3.266,23.424c4.354,4.91 22.343,9.263 39.223,4.36c16.89,-4.91 23.793,-10.465 23.793,-10.465" style="fill:#fff;fill-rule:nonzero;stroke:#2a2f71;stroke-width:3.46px;"/><path d="M272.72,304.775c0,0 -11.866,3.179 -19.865,-1.866c-6.642,-4.196 -5.99,-4.91 -5.99,-4.91" style="fill:#fff;fill-rule:nonzero;stroke:#2a2f71;stroke-width:3.46px;"/></svg>